Coordinates
version=1
nRows=65
nColumns=12
inDegrees=yes

Units are S.I. units (second, meters, Newtons, ...)
Angles are in degrees

endheader
time	SC_y	SC_z	SC_x	AC_y	AC_z	AC_x	GH_y	GH_z	GH_yy	EL_x	PS_y
       0.0              -47.88           21.3          12.62          45.57         -16.44          6.122         -32.96          64.17          1.092          123.5          11.04
   0.00133              -47.87           21.3          12.62          45.57         -16.44           6.12         -32.94          64.16          1.083          123.4          11.05
   0.00266              -47.87           21.3          12.62          45.57         -16.44          6.118         -32.92          64.15          1.072          123.4          11.07
   0.00399              -47.86          21.29          12.62          45.57         -16.44          6.116          -32.9          64.14          1.061          123.4          11.09
   0.00532              -47.86          21.29          12.62          45.57         -16.44          6.113         -32.88          64.13           1.05          123.4          11.11
   0.00665              -47.85          21.29          12.62          45.58         -16.44          6.111         -32.86          64.12          1.038          123.4          11.12
   0.00798              -47.85          21.28          12.62          45.58         -16.44          6.108         -32.84          64.11          1.025          123.4          11.14
   0.00931              -47.84          21.28          12.62          45.58         -16.44          6.105         -32.82          64.09           1.01          123.4          11.17
   0.01064              -47.84          21.27          12.61          45.58         -16.44          6.102         -32.79          64.08         0.9954          123.4          11.19
   0.01197              -47.83          21.27          12.61          45.59         -16.43          6.099         -32.76          64.07         0.9793          123.4          11.21
    0.0133              -47.82          21.26          12.61          45.59         -16.43          6.095         -32.73          64.05         0.9619          123.3          11.24
   0.01463              -47.82          21.26          12.61          45.59         -16.43          6.091          -32.7          64.03         0.9433          123.3          11.27
   0.01596              -47.81          21.25          12.61           45.6         -16.43          6.087         -32.67          64.02         0.9232          123.3           11.3
   0.01729               -47.8          21.25          12.61           45.6         -16.43          6.083         -32.63           64.0         0.9014          123.3          11.33
   0.01862              -47.79          21.24          12.61          45.61         -16.43          6.078         -32.59          63.98         0.8779          123.3          11.37
   0.01995              -47.78          21.23          12.61          45.61         -16.43          6.073         -32.55          63.95         0.8524          123.2          11.41
   0.02128              -47.77          21.23          12.61          45.62         -16.42          6.067          -32.5          63.93         0.8247          123.2          11.45
   0.02261              -47.76          21.22          12.61          45.62         -16.42          6.061         -32.45           63.9         0.7945          123.2           11.5
   0.02394              -47.74          21.21          12.61          45.63         -16.42          6.054         -32.39          63.87         0.7616          123.2          11.55
   0.02527              -47.73           21.2          12.61          45.63         -16.42          6.047         -32.33          63.84         0.7255          123.1           11.6
    0.0266              -47.71          21.19          12.61          45.64         -16.41          6.039         -32.26          63.81         0.6859          123.1          11.66
   0.02793               -47.7          21.18           12.6          45.65         -16.41           6.03         -32.19          63.77         0.6422          123.1          11.73
   0.02926              -47.68          21.16           12.6          45.66         -16.41           6.02          -32.1          63.72         0.5941          123.0          11.81
   0.03059              -47.66          21.15           12.6          45.67          -16.4          6.009         -32.01          63.68         0.5407          123.0          11.89
   0.03192              -47.63          21.13           12.6          45.68          -16.4          5.997         -31.91          63.62         0.4814          122.9          11.98
   0.03325              -47.61          21.11           12.6          45.69         -16.39          5.984          -31.8          63.56         0.4152          122.9          12.08
   0.03458              -47.58          21.09           12.6          45.71         -16.39          5.968         -31.67           63.5          0.341          122.8          12.19
   0.03591              -47.54          21.07          12.59          45.72         -16.38          5.951         -31.53          63.42         0.2576          122.7          12.32
   0.03724              -47.51          21.04          12.59          45.74         -16.37          5.932         -31.37          63.34         0.1633          122.7          12.47
   0.03857              -47.46          21.01          12.59          45.76         -16.36           5.91         -31.18          63.24        0.05623          122.6          12.63
    0.0399              -47.41          20.98          12.58          45.78         -16.35          5.885         -30.97          63.13       -0.06594          122.5          12.82
   0.04123              -47.36          20.94          12.58          45.81         -16.34          5.857         -30.73          63.01        -0.2062          122.3          13.04
   0.04256              -47.29           20.9          12.58          45.84         -16.33          5.824         -30.46          62.87         -0.368          122.2          13.28
   0.04389              -47.22          20.84          12.57          45.87         -16.32          5.785         -30.13           62.7        -0.5561          122.0          13.57
   0.04522              -47.13          20.78          12.56          45.92          -16.3           5.74         -29.76           62.5        -0.7762          121.9          13.91
   0.04655              -47.03          20.71          12.56          45.96         -16.28          5.687         -29.31          62.27         -1.036          121.6          14.31
   0.04788              -46.91          20.62          12.55          46.02         -16.26          5.624         -28.78          61.99         -1.344          121.4          14.78
   0.04921              -46.76          20.52          12.54          46.09         -16.23          5.549         -28.15          61.66         -1.714          121.1          15.35
   0.05054              -46.58           20.4          12.52          46.17         -16.19          5.457         -27.38          61.27         -2.161          120.7          16.04
   0.05187              -46.36          20.25          12.51          46.28         -16.15          5.346         -26.45          60.78         -2.707          120.2          16.88
    0.0532              -46.09          20.06          12.49           46.4          -16.1          5.208         -25.29          60.18         -3.381          119.6          17.92
   0.05453              -45.76          19.83          12.47          46.56         -16.03          5.036         -23.85          59.43         -4.222          118.9          19.21
   0.05586              -45.34          19.53          12.43          46.76         -15.95           4.82         -22.04          58.48          -5.28          118.0          20.84
   0.05719               -44.8          19.16           12.4          47.01         -15.85          4.545         -19.73          57.28         -6.627          116.9           22.9
   0.05852              -44.11          18.68          12.35          47.33         -15.72          4.193         -16.78          55.75          -8.35          115.4          25.55
   0.05985              -43.23          18.06          12.28          47.75         -15.55          3.742         -12.99          53.77         -10.56          113.5          28.95
   0.06118              -42.11          17.28           12.2          48.28         -15.33          3.165         -8.156          51.25         -13.39          111.1          33.29
   0.06251              -40.69          16.29           12.1          48.94         -15.05          2.439         -2.072          48.09         -16.94          108.0          38.75
   0.06384              -38.97          15.09          11.98          49.75         -14.72          1.555          5.342          44.23         -21.26          104.3           45.4
   0.06517              -36.97           13.7          11.83          50.69         -14.33         0.5307          13.94          39.75         -26.28          100.1          53.11
    0.0665              -34.81          12.19          11.68          51.71         -13.92        -0.5788          23.24          34.91         -31.71          95.42          61.46
   0.06783              -32.64          10.68          11.52          52.73          -13.5         -1.688          32.55          30.06         -37.14          90.78          69.81
   0.06916              -30.64          9.289          11.38          53.67         -13.11         -2.713          41.14          25.59         -42.16          86.49          77.52
   0.07049              -28.92          8.087          11.25          54.48         -12.78         -3.597          48.55          21.73         -46.49          82.79          84.18
   0.07182               -27.5          7.101          11.15          55.14          -12.5         -4.322          54.64          18.56         -50.04          79.76          89.63
   0.07315              -26.38          6.316          11.07          55.67         -12.29         -4.899          59.48          16.04         -52.86          77.34          93.98
   0.07448               -25.5          5.702          11.01          56.09         -12.12         -5.351          63.26          14.07         -55.08          75.45          97.37
   0.07581              -24.81          5.224          10.96          56.41         -11.98         -5.703          66.22          12.53          -56.8          73.98          100.0
   0.07714              -24.27           4.85          10.92          56.66         -11.88         -5.978          68.52          11.33         -58.14          72.83          102.1
   0.07847              -23.85          4.556          10.89          56.86          -11.8         -6.194          70.34          10.39          -59.2          71.93          103.7
    0.0798              -23.52          4.322          10.86          57.02         -11.73         -6.366          71.78          9.638         -60.04          71.21          105.0
   0.08113              -23.25          4.135          10.84          57.14         -11.68         -6.503          72.93          9.037         -60.72          70.63          106.0
   0.08246              -23.03          3.983          10.83          57.25         -11.64         -6.615          73.87           8.55         -61.26          70.17          106.9
   0.08379              -22.85          3.859          10.81          57.33         -11.61         -6.706          74.63          8.151         -61.71          69.78          107.6
   0.08512              -22.71          3.756           10.8           57.4         -11.58         -6.782          75.27          7.821         -62.08          69.47          108.1
